<svg width="24" height="25" viewBox="0 0 24 25" fill="none" xmlns="http://www.w3.org/2000/svg">
<g clip-path="url(#clip0_8_358)">
<path d="M12 2.23975C10.0222 2.23975 8.08879 2.82624 6.4443 3.92505C4.79981 5.02386 3.51809 6.58565 2.76121 8.41291C2.00433 10.2402 1.8063 12.2508 2.19215 14.1906C2.578 16.1305 3.53041 17.9123 4.92894 19.3108C6.32746 20.7093 8.10929 21.6617 10.0491 22.0476C11.9889 22.4335 13.9996 22.2354 15.8268 21.4785C17.6541 20.7217 19.2159 19.4399 20.3147 17.7954C21.4135 16.151 22 14.2176 22 12.2397C22 10.9265 21.7413 9.62617 21.2388 8.41291C20.7363 7.19966 19.9997 6.09726 19.0711 5.16868C18.1425 4.24009 17.0401 3.5035 15.8268 3.00095C14.6136 2.4984 13.3132 2.23975 12 2.23975ZM12 20.2397C10.4178 20.2397 8.87104 19.7706 7.55544 18.8915C6.23985 18.0125 5.21447 16.763 4.60897 15.3012C4.00347 13.8394 3.84504 12.2309 4.15372 10.679C4.4624 9.12718 5.22433 7.70171 6.34315 6.58289C7.46197 5.46407 8.88743 4.70215 10.4393 4.39346C11.9911 4.08478 13.5997 4.24321 15.0615 4.84871C16.5233 5.45421 17.7727 6.47959 18.6518 7.79518C19.5308 9.11078 20 10.6575 20 12.2397C20 14.3615 19.1572 16.3963 17.6569 17.8966C16.1566 19.3969 14.1217 20.2397 12 20.2397Z" fill="#AFAFAF"/>
<path d="M12 6.23981C11.0717 6.23981 10.1815 6.60856 9.52513 7.26494C8.86875 7.92132 8.5 8.81156 8.5 9.73981C8.5 10.005 8.60536 10.2594 8.79289 10.4469C8.98043 10.6345 9.23478 10.7398 9.5 10.7398C9.76522 10.7398 10.0196 10.6345 10.2071 10.4469C10.3946 10.2594 10.5 10.005 10.5 9.73981C10.5 9.44314 10.588 9.15313 10.7528 8.90646C10.9176 8.65978 11.1519 8.46753 11.426 8.35399C11.7001 8.24046 12.0017 8.21076 12.2926 8.26864C12.5836 8.32651 12.8509 8.46937 13.0607 8.67915C13.2704 8.88893 13.4133 9.15621 13.4712 9.44718C13.5291 9.73815 13.4994 10.0397 13.3858 10.3138C13.2723 10.5879 13.08 10.8222 12.8334 10.987C12.5867 11.1518 12.2967 11.2398 12 11.2398C11.7348 11.2398 11.4804 11.3452 11.2929 11.5327C11.1054 11.7202 11 11.9746 11 12.2398V14.2398C11 14.505 11.1054 14.7594 11.2929 14.9469C11.4804 15.1345 11.7348 15.2398 12 15.2398C12.2652 15.2398 12.5196 15.1345 12.7071 14.9469C12.8946 14.7594 13 14.505 13 14.2398V13.0798C13.8081 12.8438 14.5037 12.3237 14.9585 11.6153C15.4133 10.9068 15.5967 10.0579 15.4749 9.22488C15.3532 8.39188 14.9344 7.63097 14.2958 7.0824C13.6572 6.53384 12.8418 6.23459 12 6.23981Z" fill="#AFAFAF"/>
<path d="M12 18.2397C12.5523 18.2397 13 17.792 13 17.2397C13 16.6875 12.5523 16.2397 12 16.2397C11.4477 16.2397 11 16.6875 11 17.2397C11 17.792 11.4477 18.2397 12 18.2397Z" fill="#AFAFAF"/>
</g>
<defs>
<clipPath id="clip0_8_358">
<rect width="24" height="24" fill="white" transform="translate(0 0.239746)"/>
</clipPath>
</defs>
</svg>
