<svg width="18" height="18" viewBox="0 0 18 18" fill="none" xmlns="http://www.w3.org/2000/svg">
<path d="M9 15.375H5.25C3 15.375 1.5 14.25 1.5 11.625V6.375C1.5 3.75 3 2.625 5.25 2.625H12.75C15 2.625 16.5 3.75 16.5 6.375V8.625" stroke="#AFAFAF" stroke-width="1.5" stroke-linecap="round" stroke-linejoin="round"/>
<path d="M12.75 6.75L10.4025 8.625C9.99485 8.92462 9.50216 9.0862 8.99625 9.0862C8.49034 9.0862 7.99765 8.92462 7.59 8.625L5.25 6.75" stroke="#AFAFAF" stroke-width="1.5" stroke-linecap="round" stroke-linejoin="round"/>
<path d="M14.4074 11.0776L11.7531 13.7326C11.6392 13.8568 11.5614 14.0098 11.5281 14.1751L11.3856 15.1876C11.3678 15.2661 11.3701 15.3478 11.3924 15.4252C11.4148 15.5026 11.4563 15.573 11.5133 15.6299C11.5702 15.6869 11.6406 15.7284 11.718 15.7508C11.7954 15.7731 11.8771 15.7754 11.9556 15.7576L12.9681 15.6151C13.134 15.5835 13.2874 15.5054 13.4106 15.3901L16.0656 12.7351C16.198 12.6403 16.3059 12.5154 16.3803 12.3706C16.4547 12.2258 16.4936 12.0654 16.4936 11.9026C16.4936 11.7398 16.4547 11.5793 16.3803 11.4345C16.3059 11.2898 16.198 11.1648 16.0656 11.0701C15.9705 10.9389 15.8455 10.8322 15.701 10.7589C15.5565 10.6856 15.3966 10.6477 15.2346 10.6484C15.0725 10.6492 14.913 10.6885 14.7692 10.7631C14.6253 10.8377 14.5013 10.9455 14.4074 11.0776V11.0776Z" stroke="#AFAFAF" stroke-width="1.5" stroke-linecap="round" stroke-linejoin="round"/>
<path d="M14.0249 11.46C14.135 11.8577 14.3462 12.2201 14.638 12.5119C14.9298 12.8037 15.2922 13.0149 15.6899 13.125" stroke="#AFAFAF" stroke-width="1.5" stroke-linecap="round" stroke-linejoin="round"/>
</svg>
