<svg width="18" height="18" viewBox="0 0 18 18" fill="none" xmlns="http://www.w3.org/2000/svg">
<path d="M16.5 9C16.5 9.29667 16.412 9.58668 16.2472 9.83336C16.0824 10.08 15.8481 10.2723 15.574 10.3858C15.2999 10.4994 14.9983 10.5291 14.7074 10.4712C14.4164 10.4133 14.1491 10.2704 13.9393 10.0607C13.7296 9.85088 13.5867 9.58361 13.5288 9.29264C13.4709 9.00166 13.5006 8.70006 13.6142 8.42597C13.7277 8.15189 13.92 7.91762 14.1666 7.7528C14.4133 7.58797 14.7033 7.5 15 7.5C15.3978 7.5 15.7794 7.65804 16.0607 7.93934C16.342 8.22064 16.5 8.60218 16.5 9Z" stroke="#AFAFAF" stroke-width="1.5" stroke-linecap="round" stroke-linejoin="round"/>
<path d="M16.5 3C16.5 3.29667 16.412 3.58668 16.2472 3.83336C16.0824 4.08003 15.8481 4.27229 15.574 4.38582C15.2999 4.49935 14.9983 4.52906 14.7074 4.47118C14.4164 4.4133 14.1491 4.27044 13.9393 4.06066C13.7296 3.85088 13.5867 3.58361 13.5288 3.29264C13.4709 3.00166 13.5006 2.70006 13.6142 2.42597C13.7277 2.15189 13.92 1.91762 14.1666 1.7528C14.4133 1.58797 14.7033 1.5 15 1.5C15.3978 1.5 15.7794 1.65804 16.0607 1.93934C16.342 2.22064 16.5 2.60218 16.5 3Z" stroke="#AFAFAF" stroke-width="1.5" stroke-linecap="round" stroke-linejoin="round"/>
<path d="M16.5 15C16.5 15.2967 16.412 15.5867 16.2472 15.8334C16.0824 16.08 15.8481 16.2723 15.574 16.3858C15.2999 16.4994 14.9983 16.5291 14.7074 16.4712C14.4164 16.4133 14.1491 16.2704 13.9393 16.0607C13.7296 15.8509 13.5867 15.5836 13.5288 15.2926C13.4709 15.0017 13.5006 14.7001 13.6142 14.426C13.7277 14.1519 13.92 13.9176 14.1666 13.7528C14.4133 13.588 14.7033 13.5 15 13.5C15.3978 13.5 15.7794 13.658 16.0607 13.9393C16.342 14.2206 16.5 14.6022 16.5 15Z" stroke="#AFAFAF" stroke-width="1.5" stroke-linecap="round" stroke-linejoin="round"/>
<path d="M4.5 9C4.5 9.29667 4.41203 9.58668 4.24721 9.83336C4.08238 10.08 3.84811 10.2723 3.57403 10.3858C3.29994 10.4994 2.99834 10.5291 2.70737 10.4712C2.41639 10.4133 2.14912 10.2704 1.93934 10.0607C1.72956 9.85088 1.5867 9.58361 1.52882 9.29264C1.47094 9.00166 1.50065 8.70006 1.61418 8.42597C1.72771 8.15189 1.91997 7.91762 2.16665 7.7528C2.41332 7.58797 2.70333 7.5 3 7.5C3.39783 7.5 3.77936 7.65804 4.06066 7.93934C4.34197 8.22064 4.5 8.60218 4.5 9Z" stroke="#AFAFAF" stroke-width="1.5" stroke-linecap="round" stroke-linejoin="round"/>
<path d="M4.5 9H13.5" stroke="#AFAFAF" stroke-width="1.5" stroke-linecap="round" stroke-linejoin="round"/>
<path d="M13.4999 2.99992H10.4999C10.1943 2.95632 9.88271 2.98445 9.58984 3.0821C9.29697 3.17976 9.03085 3.34424 8.81255 3.56255C8.59424 3.78085 8.42976 4.04697 8.3321 4.33984C8.23445 4.63271 8.20632 4.94429 8.24992 5.24992V12.7499C8.20632 13.0556 8.23445 13.3671 8.3321 13.66C8.42976 13.9529 8.59424 14.219 8.81255 14.4373C9.03085 14.6556 9.29697 14.8201 9.58984 14.9177C9.88271 15.0154 10.1943 15.0435 10.4999 14.9999H13.4999" stroke="#AFAFAF" stroke-width="1.5" stroke-linecap="round" stroke-linejoin="round"/>
</svg>
