<svg width="160" height="36" viewBox="0 0 160 36" fill="none" xmlns="http://www.w3.org/2000/svg">
<path d="M36.4453 14.6376C34.8084 6.31772 27.4625 0 18.6691 0C9.7945 0 2.39451 6.42595 0.852284 14.8676L0 15.4899V26.8537L5.14076 30.9122V15.4899L4.23436 14.8135C5.73601 8.21169 11.6073 3.31444 18.6691 3.31444C25.785 3.31444 31.7104 8.30639 33.1444 14.9894L32.468 15.5035V30.9257L37.6087 26.8672V15.5035L36.4453 14.6376Z" fill="#2EBA55"/>
<path d="M25.5013 20.805V20.4939H25.4877V20.4668C25.4742 20.4803 25.4607 20.4803 25.4471 20.4939C25.4066 20.5074 25.3795 20.5344 25.3389 20.548C25.3254 20.548 25.3254 20.5615 25.3119 20.5615C25.2713 20.575 25.2442 20.6021 25.2036 20.6291C25.1901 20.6427 25.1766 20.6427 25.1631 20.6562C25.0684 20.7103 24.9737 20.7644 24.879 20.8185C23.9861 21.3326 23.1068 21.8332 22.2139 22.3472C22.0651 22.4284 22.0245 22.5366 22.0245 22.699C22.0245 25.3776 22.0245 28.0697 22.038 30.7483C22.038 30.9512 21.9704 31.0595 21.8216 31.1406C21.8216 31.1406 21.808 31.1406 21.808 31.1542C21.7945 31.1542 21.781 31.1677 21.7674 31.1677C21.1451 31.4788 20.4958 31.6953 19.8329 31.8035C19.7923 31.8171 19.7517 31.8171 19.7111 31.8171C19.4947 31.8441 19.2782 31.8712 19.0618 31.8847C19.0077 31.8847 18.9536 31.8847 18.8994 31.8847C18.8047 31.8847 18.6965 31.8847 18.6018 31.8847C18.5477 31.8847 18.4936 31.8847 18.4395 31.8847C18.223 31.8712 18.0066 31.8576 17.7901 31.8171C17.7495 31.8171 17.709 31.8035 17.6684 31.8035C17.0055 31.6818 16.3561 31.4653 15.7203 31.1677C15.7068 31.1677 15.6932 31.1542 15.6932 31.1542C15.6932 31.1542 15.6797 31.1542 15.6797 31.1406C15.5309 31.0595 15.4632 30.9512 15.4632 30.7483C15.4768 28.0697 15.4632 25.3776 15.4768 22.699C15.4768 22.5366 15.4362 22.4284 15.2874 22.3472C14.3945 21.8467 13.5016 21.3326 12.6223 20.8185C12.5276 20.7644 12.4329 20.7103 12.3382 20.6562C12.3112 20.6427 12.2841 20.6291 12.257 20.6156C12.23 20.6021 12.2029 20.5886 12.1894 20.575C12.1759 20.575 12.1759 20.5615 12.1623 20.5615C12.1082 20.5344 12.0676 20.5074 12.0135 20.4803V20.5074H12V20.8185C12 24.3088 12 27.8127 12 31.303C12 31.9659 12 32.6288 12 33.2916C12 33.3052 12 33.3187 12 33.3322C12 33.3458 12.0135 33.3593 12.0135 33.3728C12.0406 33.4269 12.0676 33.4675 12.1082 33.4946C12.1623 33.5216 12.23 33.5622 12.2841 33.5893C12.5817 33.7516 12.8793 33.9139 13.1905 34.0492C13.1905 34.0492 13.1905 34.0492 13.204 34.0492C13.2175 34.0628 13.2311 34.0628 13.2446 34.0763C14.1781 34.4821 15.125 34.8203 16.1397 34.9827C16.8296 35.0909 17.5196 35.2262 18.196 35.2397C18.3854 35.2397 18.5748 35.2397 18.7642 35.2397C18.9536 35.2397 19.143 35.2397 19.3188 35.2397C20.0088 35.2262 20.6987 35.0909 21.3751 34.9827C22.3897 34.8339 23.3367 34.4957 24.2702 34.0763C24.2837 34.0628 24.2972 34.0628 24.3108 34.0492C24.3108 34.0492 24.3108 34.0492 24.3243 34.0492C24.6354 33.9139 24.9331 33.7516 25.2307 33.5893C25.2848 33.5622 25.3524 33.5216 25.4066 33.4946C25.4607 33.4675 25.5148 33.3593 25.5148 33.2781C25.5148 32.6152 25.5148 31.9523 25.5148 31.2895C25.5013 27.7856 25.5013 24.2953 25.5013 20.805Z" fill="#2EBA55"/>
<path d="M18.6956 18.5075L9.71285 13.3262L6.76367 15.0172V31.4135L10.1052 33.4428L10.1458 17.9258L18.6956 22.8636L27.2455 17.9258L27.2726 33.4428L30.6141 31.4135V15.0172L27.6784 13.3262L18.6956 18.5075Z" fill="#2EBA55"/>
<path d="M57.0237 13.216V18.5568C57.0237 19.7216 56.7177 20.591 56.1037 21.1649C55.4896 21.7389 54.5654 22.0259 53.331 22.0259C52.0754 22.0259 51.1427 21.7389 50.5287 21.1649C49.9146 20.591 49.6086 19.7216 49.6086 18.5568V13.216H51.4318V18.2698C51.4318 18.9767 51.588 19.5106 51.9003 19.8672C52.2126 20.2238 52.681 20.4032 53.3014 20.4032C53.926 20.4032 54.3987 20.2238 54.7194 19.863C55.0402 19.5042 55.2005 18.9725 55.2005 18.2677V13.2139H57.0237V13.216Z" fill="#2EBB55"/>
<path d="M60.1262 21.8001V13.216H62.0317L65.83 18.2107C65.9397 18.3521 66.06 18.5504 66.1908 18.8058C66.3216 19.0611 66.4567 19.3629 66.5981 19.711C66.5558 19.4578 66.5242 19.2046 66.5052 18.9556C66.4862 18.7045 66.4757 18.3922 66.4757 18.0166V13.2139H68.2292V21.798H66.4292L62.5233 16.7125C62.4136 16.5711 62.2955 16.3728 62.1646 16.1174C62.0359 15.8621 61.8987 15.5561 61.7553 15.1995C61.7975 15.4464 61.8291 15.6954 61.8481 15.9465C61.8671 16.1976 61.8776 16.5163 61.8776 16.8982V21.8001H60.1262Z" fill="#2EBB55"/>
<path d="M71.3762 21.798V13.2139H73.212V21.798H71.3762Z" fill="#2EBB55"/>
<path d="M79.5756 14.7791V21.8038H77.7356V14.7791H75.636V13.2197H81.6752V14.7791H79.5756Z" fill="#2EBB55"/>
<path d="M84.0774 21.798V13.2139H89.1312V14.7627H85.9111V16.5268H89.1291V18.0862H85.9111V20.2386H89.1291V21.798H84.0774Z" fill="#2EBB55"/>
<path d="M92.1321 21.798V13.2139H94.4722C95.3944 13.2139 96.1224 13.2793 96.6541 13.408C97.1859 13.5367 97.6522 13.752 98.0553 14.0537C98.5744 14.4399 98.969 14.9273 99.237 15.516C99.5049 16.1048 99.6379 16.7737 99.6379 17.5249C99.6379 18.2867 99.5007 18.9619 99.2264 19.5507C98.9521 20.1394 98.5512 20.6247 98.0236 21.0067C97.6332 21.2873 97.1986 21.4899 96.7195 21.6144C96.2405 21.7368 95.54 21.8001 94.6178 21.8001H93.9679H92.1321V21.798ZM93.9679 20.2512H94.9871C95.9493 20.2512 96.6499 20.0318 97.0888 19.595C97.5277 19.1582 97.7493 18.4639 97.7493 17.5144C97.7493 16.569 97.5298 15.8748 97.0888 15.4359C96.6499 14.997 95.9493 14.7754 94.9871 14.7754H93.9679V20.2512Z" fill="#2EBB55"/>
<path d="M106.517 21.798L107.825 13.2139H109.748L111.402 18.2677C111.438 18.3732 111.476 18.5272 111.516 18.7319C111.556 18.9345 111.594 19.1687 111.63 19.4304C111.662 19.1645 111.695 18.9282 111.736 18.7171C111.773 18.5082 111.811 18.3542 111.847 18.2571L113.529 13.216H115.422L116.734 21.8001H114.994L114.367 16.6239C114.32 16.2419 114.289 15.9507 114.274 15.7566C114.259 15.5604 114.251 15.3789 114.251 15.2122C114.251 15.1215 114.251 15.0539 114.253 15.0096C114.255 14.9653 114.257 14.9252 114.261 14.8893C114.202 15.2248 114.147 15.516 114.095 15.7608C114.042 16.0056 113.993 16.1892 113.951 16.3158L112.134 21.8043H111.102L109.315 16.3158C109.3 16.2651 109.265 16.1238 109.212 15.8938C109.159 15.6638 109.085 15.3261 108.992 14.8851V15.1383C108.992 15.5371 108.956 16.0246 108.887 16.6049L108.88 16.6281L108.258 21.8043H106.517V21.798Z" fill="#2EBB55"/>
<path d="M118.109 21.798L121.375 13.2139H123.475L126.788 21.798H124.701L124.002 19.9748H120.679L120.082 21.798H118.109ZM123.572 18.5336L122.61 15.7608C122.582 15.6785 122.546 15.5371 122.504 15.3388C122.462 15.1404 122.415 14.8957 122.369 14.6066C122.318 14.8851 122.27 15.1341 122.223 15.3536C122.177 15.5751 122.141 15.7228 122.118 15.7967L121.192 18.5357H123.572V18.5336Z" fill="#2EBB55"/>
<path d="M135.098 21.798H132.982L130.724 17.7887V21.798H128.888V13.2139H131.515C132.56 13.2139 133.34 13.4164 133.859 13.8216C134.379 14.2267 134.64 14.8345 134.64 15.6469C134.64 16.2377 134.463 16.742 134.106 17.1599C133.75 17.5777 133.292 17.8224 132.728 17.8921L135.098 21.798ZM130.724 16.8729H131C131.743 16.8729 132.233 16.7927 132.471 16.6302C132.709 16.4677 132.828 16.185 132.828 15.784C132.828 15.362 132.699 15.0624 132.444 14.8851C132.188 14.7079 131.705 14.6192 130.998 14.6192H130.722V16.8729H130.724Z" fill="#2EBB55"/>
<path d="M137.366 21.798V13.2139H139.202V17.1008L142.064 13.2139H144.186L141.114 17.124L144.298 21.7958H142.089L139.204 17.3055V21.7958H137.366V21.798Z" fill="#2EBB55"/>
<path d="M146.347 21.798V13.2139H151.401V14.7627H148.183V16.5268H151.401V18.0862H148.183V20.2386H151.401V21.798H146.347Z" fill="#2EBB55"/>
<path d="M157.609 14.7791V21.8038H155.769V14.7791H153.669V13.2197H159.708V14.7791H157.609Z" fill="#2EBB55"/>
</svg>
