<svg width="24" height="25" viewBox="0 0 24 25" fill="none" xmlns="http://www.w3.org/2000/svg">
<path d="M15 12.2397C15 12.8331 14.8241 13.4131 14.4944 13.9065C14.1648 14.3998 13.6962 14.7843 13.1481 15.0114C12.5999 15.2384 11.9967 15.2979 11.4147 15.1821C10.8328 15.0663 10.2982 14.7806 9.87868 14.3611C9.45912 13.9415 9.1734 13.407 9.05765 12.825C8.94189 12.2431 9.0013 11.6399 9.22836 11.0917C9.45543 10.5435 9.83994 10.075 10.3333 9.74534C10.8266 9.41569 11.4067 9.23975 12 9.23975C12.7957 9.23975 13.5587 9.55582 14.1213 10.1184C14.6839 10.681 15 11.4441 15 12.2397Z" stroke="#AFAFAF" stroke-width="1.5" stroke-linecap="round" stroke-linejoin="round"/>
<path d="M2 13.1186V11.3586C2.00158 10.8552 2.20227 10.3729 2.55825 10.0169C2.91422 9.66091 3.39658 9.46023 3.9 9.45864C5.71 9.45864 6.45 8.17864 5.54 6.60864C5.29015 6.17219 5.22353 5.65447 5.35474 5.16898C5.48596 4.68349 5.8043 4.26982 6.24 4.01864L7.97 3.02864C8.35203 2.80638 8.80663 2.74472 9.23406 2.8572C9.6615 2.96969 10.0269 3.24712 10.25 3.62864L10.36 3.81864C11.26 5.38864 12.74 5.38864 13.65 3.81864L13.76 3.62864C13.9831 3.24712 14.3485 2.96969 14.7759 2.8572C15.2034 2.74472 15.658 2.80638 16.04 3.02864L17.77 4.01864C18.2057 4.26982 18.524 4.68349 18.6553 5.16898C18.7865 5.65447 18.7199 6.17219 18.47 6.60864C17.56 8.17864 18.3 9.45864 20.11 9.45864C20.6134 9.46023 21.0958 9.66091 21.4518 10.0169C21.8077 10.3729 22.0084 10.8552 22.01 11.3586V13.1186C22.0084 13.6221 21.8077 14.1044 21.4518 14.4604C21.0958 14.8164 20.6134 15.0171 20.11 15.0186C18.3 15.0186 17.56 16.2986 18.47 17.8686C18.7199 18.3051 18.7865 18.8228 18.6553 19.3083C18.524 19.7938 18.2057 20.2075 17.77 20.4586L16.04 21.4486C15.658 21.6709 15.2034 21.7326 14.7759 21.6201C14.3485 21.5076 13.9831 21.2302 13.76 20.8486L13.65 20.6586C12.75 19.0886 11.27 19.0886 10.36 20.6586L10.25 20.8486C10.0269 21.2302 9.6615 21.5076 9.23406 21.6201C8.80663 21.7326 8.35203 21.6709 7.97 21.4486L6.24 20.4586C5.8043 20.2075 5.48596 19.7938 5.35474 19.3083C5.22353 18.8228 5.29015 18.3051 5.54 17.8686C6.45 16.2986 5.71 15.0186 3.9 15.0186C3.39658 15.0171 2.91422 14.8164 2.55825 14.4604C2.20227 14.1044 2.00158 13.6221 2 13.1186V13.1186Z" stroke="#AFAFAF" stroke-width="1.5" stroke-linecap="round" stroke-linejoin="round"/>
</svg>
