<svg width="24" height="25" viewBox="0 0 24 25" fill="none" xmlns="http://www.w3.org/2000/svg">
<path d="M7.96997 22.2397C10.1791 22.2397 11.97 20.4489 11.97 18.2397C11.97 16.0306 10.1791 14.2397 7.96997 14.2397C5.76083 14.2397 3.96997 16.0306 3.96997 18.2397C3.96997 20.4489 5.76083 22.2397 7.96997 22.2397Z" stroke="#AFAFAF" stroke-width="1.5" stroke-linecap="round" stroke-linejoin="round"/>
<path d="M11.97 18.2397V4.23975" stroke="#AFAFAF" stroke-width="1.5" stroke-linecap="round" stroke-linejoin="round"/>
<path d="M14.61 2.34974L19.03 3.81974C20.1 4.17974 20.98 5.38974 20.98 6.51974V7.68974C20.98 9.21974 19.8 10.0697 18.35 9.58974L13.93 8.11974C12.86 7.75974 11.98 6.54974 11.98 5.41974V4.23974C11.97 2.71974 13.16 1.85974 14.61 2.34974Z" stroke="#AFAFAF" stroke-width="1.5" stroke-linecap="round" stroke-linejoin="round"/>
</svg>
